HIERARCHY
ROOT hip
{
	OFFSET 0.000000 0.000000 0.000000
	CHANNELS 6 Xposition Yposition Zposition Xrotation Zrotation Yrotation 
	JOINT abdomen
	{
		OFFSET 0.000000 3.422050 0.000000
		CHANNELS 3 Xrotation Zrotation Yrotation 
		JOINT chest
		{
			OFFSET 0.000000 8.486693 -0.684411
			CHANNELS 3 Xrotation Zrotation Yrotation 
			JOINT neck
			{
				OFFSET 0.000000 10.266162 -0.273764
				CHANNELS 3 Xrotation Zrotation Yrotation 
				JOINT head
				{
					OFFSET 0.000000 3.148285 0.000000
					CHANNELS 3 Xrotation Zrotation Yrotation 
					End Site
					{
						OFFSET 0.000000 3.148289 0.000000
					}
				}
			}
			JOINT lCollar
			{
				OFFSET 3.422053 6.707223 -0.821293
				CHANNELS 3 Yrotation Zrotation Xrotation 
				JOINT lShldr
				{
					OFFSET 3.285171 0.000000 0.000000
					CHANNELS 3 Zrotation Yrotation Xrotation 
					JOINT lForeArm
					{
						OFFSET 10.129278 0.000000 0.000000
						CHANNELS 3 Yrotation Zrotation Xrotation 
						JOINT lHand
						{
							OFFSET 8.486692 0.000000 0.000000
							CHANNELS 3 Zrotation Yrotation Xrotation 
							End Site
							{
								OFFSET 4.106464 0.000000 0.000000
							}
						}
					}
				}
			}
			JOINT rCollar
			{
				OFFSET -3.558935 6.707223 -0.821293
				CHANNELS 3 Yrotation Zrotation Xrotation 
				JOINT rShldr
				{
					OFFSET -3.148289 0.000000 0.000000
					CHANNELS 3 Zrotation Yrotation Xrotation 
					JOINT rForeArm
					{
						OFFSET -10.266159 0.000000 0.000000
						CHANNELS 3 Yrotation Zrotation Xrotation 
						JOINT rHand
						{
							OFFSET -8.349810 0.000000 0.000000
							CHANNELS 3 Zrotation Yrotation Xrotation 
							End Site
							{
								OFFSET -4.106464 0.000000 0.000000
							}
						}
					}
				}
			}
		}
	}
	JOINT lThigh
	{
		OFFSET 5.338403 -1.642589 1.368821
		CHANNELS 3 Xrotation Zrotation Yrotation 
		JOINT lShin
		{
			OFFSET -2.053232 -20.121670 0.000000
			CHANNELS 3 Xrotation Zrotation Yrotation 
			JOINT lFoot
			{
				OFFSET 0.000000 -19.300380 -1.231939
				CHANNELS 3 Xrotation Yrotation Zrotation 
				End Site
				{
					OFFSET 0.000000 -2.463878 4.653993
				}
			}
		}
	}
	JOINT rThigh
	{
		OFFSET -5.338403 -1.642589 1.368821
		CHANNELS 3 Xrotation Zrotation Yrotation 
		JOINT rShin
		{
			OFFSET 2.053232 -20.121670 0.000000
			CHANNELS 3 Xrotation Zrotation Yrotation 
			JOINT rFoot
			{
				OFFSET 0.000000 -19.300380 -1.231939
				CHANNELS 3 Xrotation Yrotation Zrotation 
				End Site
				{
					OFFSET 0.000000 -2.463878 4.653993
				}
			}
		}
	}
}
MOTION
Frames: 18
Frame Time: 0.033264
0.000000 43.528500 0.000000 0.000000 0.000000 0.000000 0.000000 0.000000 0.000000 0.000000 0.000000 0.000000 0.000000 0.000000 0.000000 0.000000 0.000000 0.000000 0.000000 0.000000 0.000000 0.000000 0.000000 0.000000 0.000000 0.000000 0.000000 0.000000 0.000000 0.000000 0.000000 0.000000 0.000000 0.000000 0.000000 0.000000 0.000000 0.000000 0.000000 0.000000 0.000000 0.000000 0.000000 0.000000 0.000000 0.000000 0.000000 0.000000 0.000000 0.000000 0.000000 0.000000 0.000000 0.000000 0.000000 0.000000 0.000000 0.000000 0.000000 0.000000 
0.429528 26.686531 7.314105 32.996449 0.000000 0.000000 7.721162 0.310666 -0.422432 -8.138361 1.540969 -1.875106 0.169604 0.000000 0.000000 0.159116 0.000000 0.000000 -4.792975 -24.250183 28.109835 -32.566410 -31.567085 -65.909027 -104.597588 -74.853584 -105.849899 12.056886 -39.654518 132.418015 5.050478 23.315979 26.070686 32.408226 31.522409 -66.044121 102.704147 74.840675 -104.021339 -10.892119 33.490540 134.599899 -114.283554 17.077085 -10.919209 100.650047 2.598213 -0.135381 -6.344802 13.300498 -4.252311 -114.266655 -18.126577 12.598977 99.689949 -2.633412 0.206191 -4.740277 -12.171333 6.007896 
0.429528 26.686531 7.495330 31.835331 0.000000 0.000000 8.165468 0.310666 -0.422372 -7.141718 1.540896 -1.875198 0.234033 0.000000 0.000000 0.219764 0.000000 0.000000 -4.792975 -24.250183 28.109835 -32.566414 -31.567089 -65.909027 -103.024796 -74.912552 -104.335091 11.471143 -39.738258 132.625687 5.050478 23.315979 26.070686 32.408226 31.522409 -66.044121 101.160858 74.885948 -102.534668 -10.328379 33.574623 134.785278 -112.960419 18.062685 -10.586003 100.650047 2.598213 -0.135381 -7.133397 12.519538 -3.734738 -112.978027 -19.115744 12.257259 99.689949 -2.633412 0.206191 -5.521859 -11.400292 5.469538 
0.429528 26.686531 7.676557 30.672291 0.000000 0.000000 8.609881 0.310666 -0.422312 -6.143858 1.540823 -1.875290 0.298467 0.000000 0.000000 0.280414 0.000000 0.000000 -4.792977 -24.250185 28.109838 -32.566410 -31.567085 -65.909027 -101.440681 -74.960594 -102.808975 10.884133 -39.820393 132.834793 5.050478 23.315979 26.070686 32.408230 31.522409 -66.044121 99.609222 74.920662 -101.039658 -9.763596 33.657188 134.971848 -111.619331 19.043749 -10.225708 100.650047 2.598213 -0.135381 -7.913692 11.730468 -3.228904 -111.671211 -20.100336 11.888677 99.689949 -2.633412 0.206191 -6.295231 -10.620905 4.942498 
0.429528 26.686531 7.857782 29.507559 0.000000 0.000000 9.054387 0.310665 -0.422252 -5.144937 1.540753 -1.875384 0.362903 0.000000 0.000000 0.341068 0.000000 0.000000 -4.792976 -24.250185 28.109837 -32.566414 -31.567089 -65.909027 -99.847542 -74.997658 -101.273834 10.295892 -39.900887 133.045273 5.050478 23.315981 26.070686 32.408226 31.522409 -66.044121 98.051384 74.944801 -99.538460 -9.197810 33.738251 135.159637 -110.259796 20.019213 -9.837776 100.650055 2.598214 -0.135381 -8.685789 10.933640 -2.734768 -110.345642 -21.079323 11.492657 99.689949 -2.633413 0.206191 -7.060475 -9.833521 4.426754 
0.429528 26.686531 8.039008 28.341377 0.000000 0.000000 9.498974 0.310664 -0.422191 -4.145099 1.540684 -1.875480 0.427344 0.000000 0.000000 0.401725 0.000000 0.000000 -4.792974 -24.250183 28.109833 -32.566406 -31.567081 -65.909019 -98.247643 -75.023636 -99.731934 9.706450 -39.979740 133.257126 5.050478 23.315979 26.070686 32.408222 31.522409 -66.044121 96.489601 74.958412 -98.033310 -8.631054 33.817787 135.348587 -108.881226 20.987982 -9.421670 100.650047 2.598213 -0.135381 -9.449801 10.129414 -2.252287 -109.000725 -22.051641 11.068622 99.689941 -2.633412 0.206191 -7.817679 -9.038493 3.922275 
0.429528 26.686531 8.220234 27.173983 0.000000 0.000000 9.943630 0.310663 -0.422131 -3.144498 1.540617 -1.875577 0.491788 0.000000 0.000000 0.462385 0.000000 0.000000 -4.792976 -24.250181 28.109835 -32.566406 -31.567085 -65.909019 -96.643227 -75.038445 -98.185539 9.115853 -40.056927 133.470291 5.050478 23.315979 26.070686 32.408226 31.522409 -66.044121 94.925766 74.961205 -96.526131 -8.063354 33.895779 135.538696 -107.483154 21.948940 -8.976879 100.650047 2.598213 -0.135381 -10.205844 9.318142 -1.781405 -107.635918 -23.016220 10.616033 99.689941 -2.633412 0.206191 -8.566936 -8.236171 3.429026 
0.429528 26.686531 8.401461 26.005615 0.000000 0.000000 10.388337 0.310661 -0.422071 -2.143286 1.540552 -1.875675 0.556236 0.000000 0.000000 0.523048 0.000000 0.000000 -4.792976 -24.250183 28.109833 -32.566410 -31.567085 -65.909027 -95.036766 -75.042053 -96.637093 8.524135 -40.132435 133.684753 5.050478 23.315979 26.070686 32.408226 31.522409 -66.044121 93.362419 74.953415 -95.019432 -7.494744 33.972202 135.729919 -106.065071 22.900963 -8.502914 100.650047 2.598213 -0.135381 -10.954042 8.500182 -1.322068 -106.250710 -23.971975 10.134364 99.689949 -2.633412 0.206191 -9.308358 -7.426915 2.946962 
0.429528 26.686531 8.582686 24.836514 0.000000 0.000000 10.833086 0.310658 -0.422011 -1.141614 1.540488 -1.875774 0.620687 0.000000 0.000000 0.583713 0.000000 0.000000 -4.792975 -24.250183 28.109835 -32.566414 -31.567085 -65.909027 -93.430573 -75.034454 -95.088921 7.931336 -40.206249 133.900513 5.050477 23.315981 26.070686 32.408226 31.522409 -66.044121 91.801567 74.934959 -93.515251 -6.925261 34.047058 135.922226 -104.626534 23.842909 -7.999324 100.650055 2.598213 -0.135381 -11.694527 7.675894 -0.874212 -104.844559 -24.917778 9.623106 99.689949 -2.633412 0.206191 -10.042054 -6.611078 2.476036 
0.429528 26.686531 8.763912 23.666931 0.000000 0.000000 11.277862 0.310655 -0.421950 -0.139637 1.540426 -1.875874 0.685142 0.000000 0.000000 0.644382 0.000000 0.000000 -4.792975 -24.250183 28.109835 -32.566414 -31.567085 -65.909027 -91.826973 -75.015610 -93.543343 7.337496 -40.278358 134.117477 5.050478 23.315979 26.070686 32.408230 31.522409 -66.044121 90.245499 74.905922 -92.015846 -6.354939 34.120342 136.115646 -103.167107 24.773607 -7.465679 100.650055 2.598213 -0.135381 -12.427438 6.845638 -0.437769 -103.416985 -25.852510 9.081787 99.689949 -2.633412 0.206191 -10.768145 -5.789020 2.016193 
0.429528 26.686531 8.945138 22.497103 0.000000 0.000000 11.722651 0.310652 -0.421890 0.862495 1.540365 -1.875976 0.749600 0.000000 0.000000 0.705053 0.000000 0.000000 -4.792976 -24.250183 28.109838 -32.566418 -31.567093 -65.909035 -90.228500 -74.985657 -92.002892 6.742649 -40.348755 134.335663 5.050478 23.315983 26.070686 32.408226 31.522409 -66.044121 88.696251 74.866280 -90.523270 -5.783807 34.192020 136.310089 -101.686394 25.691902 -6.901604 100.650047 2.598213 -0.135381 -13.152913 6.009765 -0.012669 -101.967537 -26.775030 8.509976 99.689949 -2.633412 0.206191 -11.486751 -4.961092 1.567375 
0.429527 26.686531 9.126364 21.327271 0.000000 0.000000 12.167437 0.310648 -0.421830 1.864627 1.540307 -1.876078 0.814062 0.000000 0.000000 0.765728 0.000000 0.000000 -4.792976 -24.250183 28.109833 -32.566406 -31.567080 -65.909012 -88.637398 -74.944641 -90.469826 6.146842 -40.417404 134.555008 5.050478 23.315977 26.070686 32.408218 31.522406 -66.044121 87.155884 74.816124 -89.039574 -5.211901 34.262089 136.505554 -100.184021 26.596596 -6.306758 100.650032 2.598213 -0.135381 -13.871109 5.168640 0.401163 -100.495796 -27.684185 7.907277 99.689949 -2.633412 0.206191 -12.198009 -4.127655 1.129519 
0.429527 26.686531 9.307590 20.157684 0.000000 0.000000 12.612211 0.310644 -0.421770 2.866604 1.540250 -1.876182 0.878526 0.000000 0.000000 0.826405 0.000000 0.000000 -4.792975 -24.250183 28.109833 -32.566410 -31.567085 -65.909027 -87.055862 -74.892616 -88.946327 5.550116 -40.484333 134.775528 5.050477 23.315979 26.070686 32.408226 31.522409 -66.044121 85.626556 74.755646 -87.566940 -4.639262 34.330528 136.701996 -98.659714 27.486523 -5.680867 100.650032 2.598213 -0.135381 -14.582170 4.322614 0.803802 -99.001389 -28.578814 7.273345 99.689949 -2.633412 0.206191 -12.902043 -3.289060 0.702559 
0.429527 26.686531 9.488816 18.988583 0.000000 0.000000 13.056959 0.310639 -0.421710 3.868276 1.540195 -1.876286 0.942995 0.000000 0.000000 0.887085 0.000000 0.000000 -4.792975 -24.250183 28.109835 -32.566410 -31.567085 -65.909027 -85.486168 -74.829750 -87.434677 4.952510 -40.549488 134.997116 5.050478 23.315979 26.070686 32.408226 31.522409 -66.044121 84.109993 74.684883 -86.107063 -4.065921 34.397350 136.899414 -97.113197 28.360481 -5.023709 100.650047 2.598213 -0.135381 -15.286256 3.472045 1.195331 -97.484016 -29.457773 6.607901 99.689949 -2.633412 0.206191 -13.599012 -2.445665 0.286427 
0.429527 26.686531 9.670042 17.820223 0.000000 0.000000 13.501668 0.310634 -0.421650 4.869487 1.540142 -1.876391 1.007467 0.000000 0.000000 0.947768 0.000000 0.000000 -4.792975 -24.250185 28.109835 -32.566410 -31.567085 -65.909027 -83.930267 -74.756119 -85.936821 4.354067 -40.612869 135.219788 5.050478 23.315979 26.070686 32.408226 31.522409 -66.044121 82.608131 74.604034 -84.661896 -3.491917 34.462524 137.097763 -95.544327 29.217302 -4.335146 100.650047 2.598213 -0.135381 -15.983524 2.617285 1.575827 -95.943382 -30.319880 5.910716 99.689949 -2.633412 0.206191 -14.289046 -1.597822 -0.118951 
0.429527 26.686531 9.851268 16.652828 0.000000 0.000000 13.946321 0.310628 -0.421589 5.870090 1.540091 -1.876498 1.071941 0.000000 0.000000 1.008453 0.000000 0.000000 -4.792975 -24.250183 28.109837 -32.566410 -31.567085 -65.909027 -82.390167 -74.671898 -84.454781 3.754829 -40.674488 135.443512 5.050478 23.315979 26.070686 32.408230 31.522409 -66.044121 81.122711 74.513275 -83.233177 -2.917282 34.526043 137.297012 -93.952972 30.055817 -3.615096 100.650047 2.598213 -0.135381 -16.674141 1.758683 1.945377 -94.379364 -31.164000 5.181654 99.689949 -2.633412 0.206191 -14.972301 -0.745881 -0.513646 
0.429527 26.686531 10.032494 15.486645 0.000000 0.000000 14.390908 0.310622 -0.421529 6.869925 1.540042 -1.876605 1.136419 0.000000 0.000000 1.069142 0.000000 0.000000 -4.792975 -24.250183 28.109835 -32.566410 -31.567085 -65.909027 -80.867653 -74.577255 -82.990318 3.154842 -40.734295 135.668213 5.050478 23.315983 26.070688 32.408226 31.522409 -66.044121 79.655190 74.412727 -81.822365 -2.342060 34.587906 137.497131 -92.339104 30.874857 -2.863579 100.650047 2.598213 -0.135381 -17.358273 0.896589 2.304061 -92.791794 -31.988974 4.420636 99.689949 -2.633412 0.206191 -15.648923 0.109810 -0.897735 
0.429527 26.686531 10.213720 14.321912 0.000000 0.000000 14.835414 0.310615 -0.421470 7.868848 1.539994 -1.876712 1.200901 0.000000 0.000000 1.129832 0.000000 0.000000 -4.792976 -24.250181 28.109835 -32.566402 -31.567081 -65.909019 -79.364395 -74.472389 -81.545120 2.554147 -40.792316 135.893890 5.050477 23.315977 26.070686 32.408222 31.522406 -66.044121 78.207130 74.302628 -80.431007 -1.766282 34.648098 137.698120 -90.702827 31.673285 -2.080699 100.650047 2.598213 -0.135381 -18.036093 0.031347 2.651966 -91.180679 -32.793663 3.627694 99.689949 -2.633412 0.206191 -16.319078 0.968905 -1.271295 
